M48
INCH
T01C0.0300
T02C0.0150
T03C0.0400
%
T01
X-003066Y+017125
X-006168Y+008980
X-019050Y+008980
X+001018Y+005832
X+001018Y+003832
X-004994Y+005814
X-004994Y+003814
T02
X-018100Y+020322
X-018093Y+016720
X-018093Y+020322
X-032576Y+015668
X-032575Y+016700
X-021770Y+013730
X-021770Y+011150
X-023070Y+009620
X-025770Y+010220
X-011440Y+010220
X-009820Y+009620
X-006180Y+008980
X-019050Y+008979
X-003066Y+008149
X-003066Y+017120
X-024710Y+003730
X+001000Y+022490
X-008980Y+022490
X-018110Y+003730
X-003260Y+023330
X-012170Y+023330
X-024700Y+016700
X-026000Y+015668
X-009980Y+024246
X-008980Y+024246
X-007980Y+024246
X-006980Y+024246
X-005980Y+024246
X-004980Y+024246
X-012106Y+016608
X-014106Y+016608
X-000066Y+003805
X-001066Y+003805
X-002066Y+003805
X-003066Y+003805
X-003066Y+006805
X-002066Y+006805
X-001066Y+006805
X-000066Y+006805
X-006168Y+003805
X-007168Y+003805
X-008168Y+003805
X-009168Y+003805
X-009168Y+006805
X-008168Y+006805
X-007168Y+006805
X-006168Y+006805
X-036447Y+016153
X-036447Y+015153
X-036447Y+014153
X-036447Y+013153
X-036447Y+012153
X-036447Y+011153
X-012248Y+005946
X-012248Y+004946
X-017840Y+013098
X-017840Y+011130
X-010551Y+004944
X-010551Y+005944
X+001000Y+014630
X+001010Y+012850
T03
X-004940Y+012080
X-003940Y+012080
X-000480Y+021630
X-000480Y+019630
M30
